<mxfile host="65bd71144e">
    <diagram name="Page-1" id="5f0bae14-7c28-e335-631c-24af17079c00">
        <mxGraphModel dx="4084" dy="3308" grid="1" gridSize="10" guides="1" tooltips="1" connect="1" arrows="1" fold="1" page="1" pageScale="1" pageWidth="1100" pageHeight="850" background="none" math="0" shadow="0">
            <root>
                <mxCell id="0"/>
                <mxCell id="1" parent="0"/>
                <mxCell id="2" value="&lt;h1&gt;Login&lt;/h1&gt;" style="rounded=0;whiteSpace=wrap;html=1;" vertex="1" parent="1">
                    <mxGeometry x="1400" y="170" width="120" height="60" as="geometry"/>
                </mxCell>
                <mxCell id="3" value="&lt;h1&gt;Create Post&lt;/h1&gt;" style="rounded=0;whiteSpace=wrap;html=1;" vertex="1" parent="1">
                    <mxGeometry x="880" y="210" width="160" height="60" as="geometry"/>
                </mxCell>
                <mxCell id="4" value="&lt;h1&gt;Active Posts&lt;/h1&gt;" style="rounded=0;whiteSpace=wrap;html=1;fontSize=13;" vertex="1" parent="1">
                    <mxGeometry x="540" y="210" width="210" height="50" as="geometry"/>
                </mxCell>
                <mxCell id="5" value="&lt;h1&gt;Active post&lt;/h1&gt;" style="rounded=0;whiteSpace=wrap;html=1;fontSize=13;fontStyle=1;" vertex="1" parent="1">
                    <mxGeometry x="530" y="300" width="190" height="60" as="geometry"/>
                </mxCell>
                <mxCell id="6" value="&lt;h1&gt;Add Comment&lt;/h1&gt;" style="rounded=0;whiteSpace=wrap;html=1;fontSize=13;" vertex="1" parent="1">
                    <mxGeometry x="480" y="525" width="120" height="60" as="geometry"/>
                </mxCell>
                <mxCell id="7" value="&lt;h1&gt;Add Vote&lt;/h1&gt;" style="rounded=0;whiteSpace=wrap;html=1;fontSize=13;" vertex="1" parent="1">
                    <mxGeometry x="490" y="405" width="120" height="60" as="geometry"/>
                </mxCell>
                <mxCell id="8" value="&lt;h1&gt;Archive&lt;/h1&gt;" style="rounded=0;whiteSpace=wrap;html=1;fontSize=13;" vertex="1" parent="1">
                    <mxGeometry x="670" y="415" width="190" height="60" as="geometry"/>
                </mxCell>
                <mxCell id="9" value="&lt;h1&gt;Delete&lt;/h1&gt;" style="rounded=0;whiteSpace=wrap;html=1;fontSize=13;" vertex="1" parent="1">
                    <mxGeometry x="700" y="510" width="120" height="60" as="geometry"/>
                </mxCell>
                <mxCell id="10" value="&lt;h1&gt;Logout&lt;/h1&gt;" style="rounded=0;whiteSpace=wrap;html=1;fontSize=13;" vertex="1" parent="1">
                    <mxGeometry x="1140" y="210" width="120" height="60" as="geometry"/>
                </mxCell>
                <mxCell id="11" value="&lt;h1&gt;Home&lt;/h1&gt;" style="rounded=0;whiteSpace=wrap;html=1;fontSize=13;" vertex="1" parent="1">
                    <mxGeometry x="750" y="110" width="120" height="60" as="geometry"/>
                </mxCell>
                <mxCell id="12" value="&lt;h1&gt;profile&lt;/h1&gt;" style="rounded=0;whiteSpace=wrap;html=1;fontSize=13;" vertex="1" parent="1">
                    <mxGeometry x="380" y="120" width="120" height="60" as="geometry"/>
                </mxCell>
                <mxCell id="16" value="" style="edgeStyle=none;html=1;fontSize=13;" edge="1" parent="1" source="13" target="10">
                    <mxGeometry relative="1" as="geometry"/>
                </mxCell>
                <mxCell id="13" value="&lt;h1&gt;NavBar&lt;/h1&gt;" style="rounded=0;whiteSpace=wrap;html=1;fontSize=13;" vertex="1" parent="1">
                    <mxGeometry x="1140" y="110" width="120" height="60" as="geometry"/>
                </mxCell>
                <mxCell id="15" value="&lt;h1&gt;Archived Posts&lt;/h1&gt;" style="rounded=0;whiteSpace=wrap;html=1;fontSize=13;" vertex="1" parent="1">
                    <mxGeometry x="100" y="170" width="230" height="60" as="geometry"/>
                </mxCell>
                <mxCell id="17" value="&lt;h1&gt;Profile Card&lt;/h1&gt;" style="rounded=0;whiteSpace=wrap;html=1;fontSize=13;" vertex="1" parent="1">
                    <mxGeometry x="-110" y="180" width="180" height="60" as="geometry"/>
                </mxCell>
                <mxCell id="18" value="&lt;h1&gt;Edit profile data&lt;/h1&gt;" style="rounded=0;whiteSpace=wrap;html=1;fontSize=13;" vertex="1" parent="1">
                    <mxGeometry x="-630" y="110" width="240" height="50" as="geometry"/>
                </mxCell>
                <mxCell id="20" value="&lt;h1&gt;Archived post&lt;/h1&gt;" style="rounded=0;whiteSpace=wrap;html=1;fontSize=13;fontStyle=1;" vertex="1" parent="1">
                    <mxGeometry x="90" y="295" width="220" height="70" as="geometry"/>
                </mxCell>
                <mxCell id="24" value="&lt;h1&gt;Delete&lt;/h1&gt;" style="rounded=0;whiteSpace=wrap;html=1;fontSize=13;" vertex="1" parent="1">
                    <mxGeometry x="140" y="405" width="120" height="60" as="geometry"/>
                </mxCell>
            </root>
        </mxGraphModel>
    </diagram>
</mxfile>
